<svg id="visual" viewBox="0 0 960 540" width="960" height="540" xmlns="http://www.w3.org/2000/svg" xmlns:xlink="http://www.w3.org/1999/xlink" version="1.1"><rect x="0" y="0" width="960" height="540" fill="#002233"></rect><path d="M0 393L22.8 399.7C45.7 406.3 91.3 419.7 137 427C182.7 434.3 228.3 435.7 274 434.7C319.7 433.7 365.3 430.3 411.2 433.8C457 437.3 503 447.7 548.8 438.2C594.7 428.7 640.3 399.3 686 394.5C731.7 389.7 777.3 409.3 823 414.2C868.7 419 914.3 409 937.2 404L960 399L960 541L937.2 541C914.3 541 868.7 541 823 541C777.3 541 731.7 541 686 541C640.3 541 594.7 541 548.8 541C503 541 457 541 411.2 541C365.3 541 319.7 541 274 541C228.3 541 182.7 541 137 541C91.3 541 45.7 541 22.8 541L0 541Z" fill="#0066FF" stroke-linecap="round" stroke-linejoin="miter"></path></svg>